<mxfile host="app.diagrams.net" modified="2024-10-08T12:00:47.694Z" agent="Mozilla/5.0 (Macintosh; Intel Mac OS X 10_15_7) AppleWebKit/537.36 (KHTML, like Gecko) Chrome/129.0.0.0 Safari/537.36 Edg/129.0.0.0" etag="PwhtGgGgJCNmIY2keGqf" version="24.5.5" type="github">
  <diagram name="第 1 页" id="9ddVx9oiDIFE1Swpd2-y">
    <mxGraphModel dx="759" dy="547" grid="1" gridSize="10" guides="1" tooltips="1" connect="1" arrows="1" fold="1" page="1" pageScale="1" pageWidth="827" pageHeight="1169" math="0" shadow="0">
      <root>
        <mxCell id="0" />
        <mxCell id="1" parent="0" />
        <mxCell id="Lul8At1A4Ap-DI32mLOm-5" style="edgeStyle=orthogonalEdgeStyle;rounded=0;orthogonalLoop=1;jettySize=auto;html=1;" edge="1" parent="1" source="Lul8At1A4Ap-DI32mLOm-1" target="Lul8At1A4Ap-DI32mLOm-6">
          <mxGeometry relative="1" as="geometry">
            <mxPoint x="520" y="460" as="targetPoint" />
          </mxGeometry>
        </mxCell>
        <mxCell id="Lul8At1A4Ap-DI32mLOm-1" value="&lt;font face=&quot;Helvetica&quot; style=&quot;font-size: 19px;&quot;&gt;文本&lt;/font&gt;" style="rounded=0;whiteSpace=wrap;html=1;" vertex="1" parent="1">
          <mxGeometry x="330" y="280" width="120" height="40" as="geometry" />
        </mxCell>
        <mxCell id="Lul8At1A4Ap-DI32mLOm-7" style="edgeStyle=orthogonalEdgeStyle;rounded=0;orthogonalLoop=1;jettySize=auto;html=1;" edge="1" parent="1" source="Lul8At1A4Ap-DI32mLOm-2" target="Lul8At1A4Ap-DI32mLOm-6">
          <mxGeometry relative="1" as="geometry" />
        </mxCell>
        <mxCell id="Lul8At1A4Ap-DI32mLOm-2" value="&lt;font style=&quot;font-size: 20px;&quot;&gt;图片&lt;/font&gt;" style="rounded=0;whiteSpace=wrap;html=1;" vertex="1" parent="1">
          <mxGeometry x="330" y="360" width="120" height="40" as="geometry" />
        </mxCell>
        <mxCell id="Lul8At1A4Ap-DI32mLOm-9" style="edgeStyle=orthogonalEdgeStyle;rounded=0;orthogonalLoop=1;jettySize=auto;html=1;entryX=0;entryY=0.5;entryDx=0;entryDy=0;" edge="1" parent="1" source="Lul8At1A4Ap-DI32mLOm-3" target="Lul8At1A4Ap-DI32mLOm-6">
          <mxGeometry relative="1" as="geometry" />
        </mxCell>
        <mxCell id="Lul8At1A4Ap-DI32mLOm-3" value="&lt;span style=&quot;font-size: 20px;&quot;&gt;音频&lt;/span&gt;" style="rounded=0;whiteSpace=wrap;html=1;" vertex="1" parent="1">
          <mxGeometry x="330" y="440" width="120" height="40" as="geometry" />
        </mxCell>
        <mxCell id="Lul8At1A4Ap-DI32mLOm-10" style="edgeStyle=orthogonalEdgeStyle;rounded=0;orthogonalLoop=1;jettySize=auto;html=1;" edge="1" parent="1" source="Lul8At1A4Ap-DI32mLOm-4" target="Lul8At1A4Ap-DI32mLOm-6">
          <mxGeometry relative="1" as="geometry" />
        </mxCell>
        <mxCell id="Lul8At1A4Ap-DI32mLOm-4" value="&lt;font style=&quot;font-size: 20px;&quot;&gt;etc.&lt;/font&gt;" style="rounded=0;whiteSpace=wrap;html=1;" vertex="1" parent="1">
          <mxGeometry x="330" y="520" width="120" height="40" as="geometry" />
        </mxCell>
        <mxCell id="Lul8At1A4Ap-DI32mLOm-6" value="&lt;font style=&quot;font-size: 20px;&quot;&gt;向量&lt;/font&gt;" style="rounded=0;whiteSpace=wrap;html=1;" vertex="1" parent="1">
          <mxGeometry x="570" y="390" width="120" height="60" as="geometry" />
        </mxCell>
      </root>
    </mxGraphModel>
  </diagram>
</mxfile>
